<svg xmlns="http://www.w3.org/2000/svg" viewBox="0 0 128 128">
  <defs>
    <linearGradient id="background" x1="18" y1="10" x2="112" y2="122" gradientUnits="userSpaceOnUse">
      <stop stop-color="#0d2748"/>
      <stop offset="1" stop-color="#071525"/>
    </linearGradient>
    <linearGradient id="accent" x1="72" y1="31" x2="105" y2="95" gradientUnits="userSpaceOnUse">
      <stop stop-color="#35d4ff"/>
      <stop offset="1" stop-color="#1682ff"/>
    </linearGradient>
  </defs>
  <rect width="128" height="128" rx="34" fill="url(#background)"/>
  <path fill="#fff" d="M25 31h39c17 0 28 10 28 25 0 10-5 18-14 22l15 21H73L61 81H45v18H25V64h37c6 0 10-3 10-8s-4-8-10-8H25V31Z"/>
  <path fill="url(#accent)" d="M84 31h9c18 0 30 13 30 34 0 22-12 34-30 34h-8L73 81h17c8 0 13-6 13-16 0-11-5-17-13-17H73l11-17Z"/>
</svg>
